# xmcd CD database file generated by Grip 2.7
# 
# Track frame offsets:
#       150
#       19137
#       40592
#       62002
#       75142
#       93705
#       113357
#       128470
#       142975
#       163925
#       187817
#       204417
#       220147
# 
# Disc length: 3339 seconds
# 
# Revision: 3
# Processed by: cddbd v1.4b41PL1 Copyright (c) Steve Scherf et al.
# Submitted via: Grip 2.7
# 
DISCID=9b0d090d
DTITLE=Bruce Guthro - Of Your Son
DYEAR=1900
DGENRE=
TTITLE0=Falling
TTITLE1=Hobo Train
TTITLE2=Ivey's Wall
TTITLE3=Little Gifts
TTITLE4=Dirty Money
TTITLE5=Fallen Angel
TTITLE6=Walk This Road
TTITLE7=Love Lives On
TTITLE8=Two Story House
TTITLE9=Forbidden
TTITLE10=Friends
TTITLE11=Good Love
TTITLE12=Falling (original version)
EXTD=
EXTT0=
EXTT1=
EXTT2=
EXTT3=
EXTT4=
EXTT5=
EXTT6=
EXTT7=
EXTT8=
EXTT9=
EXTT10=
EXTT11=
EXTT12=
PLAYORDER=
